# xmcd
#
# Track frame offsets:
#	150
#	13960
#	28792
#	47603
#
# Disc length: 839 seconds
#
# Revision: 1
# Processed by: cddbd v1.5.2PL0 Copyright (c) Steve Scherf et al.
# Submitted via: audiograbber 1.83.01
#
DISCID=2c034504
DTITLE=Markus Henrik - Zahltag
DYEAR=2008
DGENRE=Rock
TTITLE0=Zahltag
TTITLE1=In Ruh'
TTITLE2=Sturm
TTITLE3=Dein Raster
EXTD=
EXTT0=
EXTT1=
EXTT2=
EXTT3=
PLAYORDER=
